<svg xmlns="http://www.w3.org/2000/svg" xmlns:v="https://svgstorm.com"
viewBox = "0 0 600 600"
width="600"
height="600">
<g fill="None" fill-opacity="0.0" stroke="#000000" stroke-opacity="0.00" stroke-width="0.3"><path d="
M 0.00 600.00 
L 600.00 600.00
L 600.00 0.00
L 0.00 0.00
L 0.00 600.00
M 319.00 301.00 
C 310.79 286.49 290.11 275.08 280.25 261.75 C 270.38 248.42 244.58 237.40 253.39 222.25 C 262.20 207.09 279.25 225.51 291.75 238.25 C 304.26 250.99 314.84 266.31 330.75 278.25 C 346.66 290.19 352.29 305.20 335.25 317.25 C 318.21 329.30 310.19 346.39 296.25 357.25 C 282.31 368.11 269.79 393.07 255.25 380.75 C 240.72 368.42 269.35 351.55 279.25 340.25 C 289.15 328.95 307.20 311.09 319.00 301.00 Z"/>
</g>
<g fill="None" fill-opacity="0.0" stroke="#000000" stroke-opacity="0.98" stroke-width="0.3"><path d="
M 319.00 301.00 
C 307.20 311.09 289.15 328.95 279.25 340.25 C 269.35 351.55 240.72 368.42 255.25 380.75 C 269.79 393.07 282.31 368.11 296.25 357.25 C 310.19 346.39 318.21 329.30 335.25 317.25 C 352.29 305.20 346.66 290.19 330.75 278.25 C 314.84 266.31 304.26 250.99 291.75 238.25 C 279.25 225.51 262.20 207.09 253.39 222.25 C 244.58 237.40 270.38 248.42 280.25 261.75 C 290.11 275.08 310.79 286.49 319.00 301.00 Z"/>
</g>
<g fill="#000000" fill-opacity="0.00" stroke="None">
<path d="
M 0.00 600.00 
L 600.00 600.00
L 600.00 0.00
L 0.00 0.00
L 0.00 600.00
M 319.00 301.00 
C 310.79 286.49 290.11 275.08 280.25 261.75 C 270.38 248.42 244.58 237.40 253.39 222.25 C 262.20 207.09 279.25 225.51 291.75 238.25 C 304.26 250.99 314.84 266.31 330.75 278.25 C 346.66 290.19 352.29 305.20 335.25 317.25 C 318.21 329.30 310.19 346.39 296.25 357.25 C 282.31 368.11 269.79 393.07 255.25 380.75 C 240.72 368.42 269.35 351.55 279.25 340.25 C 289.15 328.95 307.20 311.09 319.00 301.00 Z"/>
</g>
<g fill="#000000" fill-opacity="0.98" stroke="None">
<path d="
M 319.00 301.00 
C 307.20 311.09 289.15 328.95 279.25 340.25 C 269.35 351.55 240.72 368.42 255.25 380.75 C 269.79 393.07 282.31 368.11 296.25 357.25 C 310.19 346.39 318.21 329.30 335.25 317.25 C 352.29 305.20 346.66 290.19 330.75 278.25 C 314.84 266.31 304.26 250.99 291.75 238.25 C 279.25 225.51 262.20 207.09 253.39 222.25 C 244.58 237.40 270.38 248.42 280.25 261.75 C 290.11 275.08 310.79 286.49 319.00 301.00 Z"/>
</g>
</svg>