<svg xmlns="http://www.w3.org/2000/svg" xmlns:v="https://svgstorm.com"
viewBox = "0 0 300 300"
width="300"
height="300">
<g fill="None" fill-opacity="0.0" stroke="#000000" stroke-opacity="0.01" stroke-width="0.3"><path d="
M 0.00 300.00 
L 300.00 300.00
L 300.00 0.00
L 0.00 0.00
L 0.00 300.00
M 191.00 54.00 
C 204.89 52.67 219.76 55.42 233.22 54.78 C 246.68 54.13 249.71 76.23 235.92 77.92 C 222.14 79.62 207.12 77.45 193.00 78.00 C 178.88 78.55 163.19 78.06 149.00 78.00 C 134.81 77.94 120.06 78.76 106.00 78.00 C 91.94 77.24 76.13 80.26 62.78 77.22 C 49.43 74.18 54.57 53.83 67.67 54.67 C 80.77 55.51 97.31 53.48 110.00 53.00
C 100.02 50.59 100.17 31.02 112.01 31.01 C 123.85 31.00 137.90 30.76 150.00 31.00 C 162.10 31.24 176.01 30.37 188.00 31.00 C 199.99 31.63 199.21 48.94 191.00 54.00
M 82.00 90.00 
C 95.38 92.62 88.92 113.79 90.00 125.00 C 91.08 136.21 89.40 156.61 90.00 169.00 C 90.60 181.39 89.49 199.82 90.00 212.00 C 90.51 224.18 86.00 242.64 100.67 245.33 C 115.34 248.02 128.17 244.61 143.00 246.00 C 157.83 247.39 171.99 244.03 187.00 246.00 C 202.01 247.97 211.23 241.18 210.00 226.00 C 208.77 210.82 210.05 196.66 210.00 182.00 C 209.95 167.34 208.91 152.14 210.00 138.00 C 211.09 123.86 206.33 109.20 211.31 96.31 C 216.28 83.41 235.95 92.63 233.00 106.00 C 230.05 119.37 234.40 135.22 233.00 149.00 C 231.60 162.78 233.86 179.30 233.00 193.00 C 232.14 206.70 233.88 222.95 233.00 236.00 C 232.12 249.05 227.46 256.74 216.92 263.92 C 206.37 271.10 191.11 269.14 178.00 269.00 C 164.89 268.86 148.20 269.67 135.00 269.00 C 121.80 268.33 104.12 271.03 91.98 268.02 C 79.83 265.02 74.47 258.43 69.68 247.32 C 64.89 236.22 67.56 218.93 67.00 206.00 C 66.44 193.07 67.48 175.97 67.00 163.00 C 66.52 150.03 67.72 131.03 67.00 119.00 C 66.28 106.97 65.43 86.75 82.00 90.00
M 129.00 102.00 
C 143.68 104.88 136.89 128.35 138.00 140.00 C 139.11 151.65 137.32 175.96 138.00 188.00 C 138.68 200.04 141.18 223.37 124.78 221.22 C 108.37 219.07 116.25 196.29 115.00 184.00 C 113.75 171.71 115.63 148.00 115.00 136.00 C 114.37 124.00 111.03 98.48 129.00 102.00
M 175.00 102.00 
C 190.75 103.33 184.10 127.15 185.00 139.00 C 185.90 150.85 184.52 175.10 185.00 187.00 C 185.48 198.89 188.92 224.01 172.33 221.67 C 155.74 219.33 163.07 197.13 162.00 185.00 C 160.93 172.87 162.36 149.10 162.00 137.00 C 161.64 124.90 157.87 100.56 175.00 102.00 Z"/>
</g>
<g fill="None" fill-opacity="0.0" stroke="#000000" stroke-opacity="1.00" stroke-width="0.3"><path d="
M 191.00 54.00 
C 199.21 48.94 199.99 31.63 188.00 31.00 C 176.01 30.37 162.10 31.24 150.00 31.00 C 137.90 30.76 123.85 31.00 112.01 31.01 C 100.17 31.02 100.02 50.59 110.00 53.00
C 97.31 53.48 80.77 55.51 67.67 54.67 C 54.57 53.83 49.43 74.18 62.78 77.22 C 76.13 80.26 91.94 77.24 106.00 78.00 C 120.06 78.76 134.81 77.94 149.00 78.00 C 163.19 78.06 178.88 78.55 193.00 78.00 C 207.12 77.45 222.14 79.62 235.92 77.92 C 249.71 76.23 246.68 54.13 233.22 54.78 C 219.76 55.42 204.89 52.67 191.00 54.00 Z"/>
</g>
<g fill="None" fill-opacity="0.0" stroke="#000000" stroke-opacity="1.00" stroke-width="0.3"><path d="
M 82.00 90.00 
C 65.43 86.75 66.28 106.97 67.00 119.00 C 67.72 131.03 66.52 150.03 67.00 163.00 C 67.48 175.97 66.44 193.07 67.00 206.00 C 67.56 218.93 64.89 236.22 69.68 247.32 C 74.47 258.43 79.83 265.02 91.98 268.02 C 104.12 271.03 121.80 268.33 135.00 269.00 C 148.20 269.67 164.89 268.86 178.00 269.00 C 191.11 269.14 206.37 271.10 216.92 263.92 C 227.46 256.74 232.12 249.05 233.00 236.00 C 233.88 222.95 232.14 206.70 233.00 193.00 C 233.86 179.30 231.60 162.78 233.00 149.00 C 234.40 135.22 230.05 119.37 233.00 106.00 C 235.95 92.63 216.28 83.41 211.31 96.31 C 206.33 109.20 211.09 123.86 210.00 138.00 C 208.91 152.14 209.95 167.34 210.00 182.00 C 210.05 196.66 208.77 210.82 210.00 226.00 C 211.23 241.18 202.01 247.97 187.00 246.00 C 171.99 244.03 157.83 247.39 143.00 246.00 C 128.17 244.61 115.34 248.02 100.67 245.33 C 86.00 242.64 90.51 224.18 90.00 212.00 C 89.49 199.82 90.60 181.39 90.00 169.00 C 89.40 156.61 91.08 136.21 90.00 125.00 C 88.92 113.79 95.38 92.62 82.00 90.00 Z"/>
</g>
<g fill="None" fill-opacity="0.0" stroke="#000000" stroke-opacity="1.00" stroke-width="0.3"><path d="
M 129.00 102.00 
C 111.03 98.48 114.37 124.00 115.00 136.00 C 115.63 148.00 113.75 171.71 115.00 184.00 C 116.25 196.29 108.37 219.07 124.78 221.22 C 141.18 223.37 138.68 200.04 138.00 188.00 C 137.32 175.96 139.11 151.65 138.00 140.00 C 136.89 128.35 143.68 104.88 129.00 102.00 Z"/>
</g>
<g fill="None" fill-opacity="0.0" stroke="#000000" stroke-opacity="1.00" stroke-width="0.3"><path d="
M 175.00 102.00 
C 157.87 100.56 161.64 124.90 162.00 137.00 C 162.36 149.10 160.93 172.87 162.00 185.00 C 163.07 197.13 155.74 219.33 172.33 221.67 C 188.92 224.01 185.48 198.89 185.00 187.00 C 184.52 175.10 185.90 150.85 185.00 139.00 C 184.10 127.15 190.75 103.33 175.00 102.00 Z"/>
</g>
<g fill="#000000" fill-opacity="0.01" stroke="None">
<path d="
M 0.00 300.00 
L 300.00 300.00
L 300.00 0.00
L 0.00 0.00
L 0.00 300.00
M 191.00 54.00 
C 204.89 52.67 219.76 55.42 233.22 54.78 C 246.68 54.13 249.71 76.23 235.92 77.92 C 222.14 79.62 207.12 77.45 193.00 78.00 C 178.88 78.55 163.19 78.06 149.00 78.00 C 134.81 77.94 120.06 78.76 106.00 78.00 C 91.94 77.24 76.13 80.26 62.78 77.22 C 49.43 74.18 54.57 53.83 67.67 54.67 C 80.77 55.51 97.31 53.48 110.00 53.00
C 100.02 50.59 100.17 31.02 112.01 31.01 C 123.85 31.00 137.90 30.76 150.00 31.00 C 162.10 31.24 176.01 30.37 188.00 31.00 C 199.99 31.63 199.21 48.94 191.00 54.00
M 82.00 90.00 
C 95.38 92.62 88.92 113.79 90.00 125.00 C 91.08 136.21 89.40 156.61 90.00 169.00 C 90.60 181.39 89.49 199.82 90.00 212.00 C 90.51 224.18 86.00 242.64 100.67 245.33 C 115.34 248.02 128.17 244.61 143.00 246.00 C 157.83 247.39 171.99 244.03 187.00 246.00 C 202.01 247.97 211.23 241.18 210.00 226.00 C 208.77 210.82 210.05 196.66 210.00 182.00 C 209.95 167.34 208.91 152.14 210.00 138.00 C 211.09 123.86 206.33 109.20 211.31 96.31 C 216.28 83.41 235.95 92.63 233.00 106.00 C 230.05 119.37 234.40 135.22 233.00 149.00 C 231.60 162.78 233.86 179.30 233.00 193.00 C 232.14 206.70 233.88 222.95 233.00 236.00 C 232.12 249.05 227.46 256.74 216.92 263.92 C 206.37 271.10 191.11 269.14 178.00 269.00 C 164.89 268.86 148.20 269.67 135.00 269.00 C 121.80 268.33 104.12 271.03 91.98 268.02 C 79.83 265.02 74.47 258.43 69.68 247.32 C 64.89 236.22 67.56 218.93 67.00 206.00 C 66.44 193.07 67.48 175.97 67.00 163.00 C 66.52 150.03 67.72 131.03 67.00 119.00 C 66.28 106.97 65.43 86.75 82.00 90.00
M 129.00 102.00 
C 143.68 104.88 136.89 128.35 138.00 140.00 C 139.11 151.65 137.32 175.96 138.00 188.00 C 138.68 200.04 141.18 223.37 124.78 221.22 C 108.37 219.07 116.25 196.29 115.00 184.00 C 113.75 171.71 115.63 148.00 115.00 136.00 C 114.37 124.00 111.03 98.48 129.00 102.00
M 175.00 102.00 
C 190.75 103.33 184.10 127.15 185.00 139.00 C 185.90 150.85 184.52 175.10 185.00 187.00 C 185.48 198.89 188.92 224.01 172.33 221.67 C 155.74 219.33 163.07 197.13 162.00 185.00 C 160.93 172.87 162.36 149.10 162.00 137.00 C 161.64 124.90 157.87 100.56 175.00 102.00 Z"/>
</g>
<g fill="#000000" fill-opacity="1.00" stroke="None">
<path d="
M 191.00 54.00 
C 199.21 48.94 199.99 31.63 188.00 31.00 C 176.01 30.37 162.10 31.24 150.00 31.00 C 137.90 30.76 123.85 31.00 112.01 31.01 C 100.17 31.02 100.02 50.59 110.00 53.00
C 97.31 53.48 80.77 55.51 67.67 54.67 C 54.57 53.83 49.43 74.18 62.78 77.22 C 76.13 80.26 91.94 77.24 106.00 78.00 C 120.06 78.76 134.81 77.94 149.00 78.00 C 163.19 78.06 178.88 78.55 193.00 78.00 C 207.12 77.45 222.14 79.62 235.92 77.92 C 249.71 76.23 246.68 54.13 233.22 54.78 C 219.76 55.42 204.89 52.67 191.00 54.00 Z"/>
</g>
<g fill="#000000" fill-opacity="1.00" stroke="None">
<path d="
M 82.00 90.00 
C 65.43 86.75 66.28 106.97 67.00 119.00 C 67.72 131.03 66.52 150.03 67.00 163.00 C 67.48 175.97 66.44 193.07 67.00 206.00 C 67.56 218.93 64.89 236.22 69.68 247.32 C 74.47 258.43 79.83 265.02 91.98 268.02 C 104.12 271.03 121.80 268.33 135.00 269.00 C 148.20 269.67 164.89 268.86 178.00 269.00 C 191.11 269.14 206.37 271.10 216.92 263.92 C 227.46 256.74 232.12 249.05 233.00 236.00 C 233.88 222.95 232.14 206.70 233.00 193.00 C 233.86 179.30 231.60 162.78 233.00 149.00 C 234.40 135.22 230.05 119.37 233.00 106.00 C 235.95 92.63 216.28 83.41 211.31 96.31 C 206.33 109.20 211.09 123.86 210.00 138.00 C 208.91 152.14 209.95 167.34 210.00 182.00 C 210.05 196.66 208.77 210.82 210.00 226.00 C 211.23 241.18 202.01 247.97 187.00 246.00 C 171.99 244.03 157.83 247.39 143.00 246.00 C 128.17 244.61 115.34 248.02 100.67 245.33 C 86.00 242.64 90.51 224.18 90.00 212.00 C 89.49 199.82 90.60 181.39 90.00 169.00 C 89.40 156.61 91.08 136.21 90.00 125.00 C 88.92 113.79 95.38 92.62 82.00 90.00 Z"/>
</g>
<g fill="#000000" fill-opacity="1.00" stroke="None">
<path d="
M 129.00 102.00 
C 111.03 98.48 114.37 124.00 115.00 136.00 C 115.63 148.00 113.75 171.71 115.00 184.00 C 116.25 196.29 108.37 219.07 124.78 221.22 C 141.18 223.37 138.68 200.04 138.00 188.00 C 137.32 175.96 139.11 151.65 138.00 140.00 C 136.89 128.35 143.68 104.88 129.00 102.00 Z"/>
</g>
<g fill="#000000" fill-opacity="1.00" stroke="None">
<path d="
M 175.00 102.00 
C 157.87 100.56 161.64 124.90 162.00 137.00 C 162.36 149.10 160.93 172.87 162.00 185.00 C 163.07 197.13 155.74 219.33 172.33 221.67 C 188.92 224.01 185.48 198.89 185.00 187.00 C 184.52 175.10 185.90 150.85 185.00 139.00 C 184.10 127.15 190.75 103.33 175.00 102.00 Z"/>
</g>
</svg>