<svg xmlns="http://www.w3.org/2000/svg" xmlns:v="https://svgstorm.com"
viewBox = "0 0 200 200"
width="200"
height="200">
<g fill="None" fill-opacity="0.0" stroke="#000000" stroke-opacity="0.00" stroke-width="0.3"><path d="
M 0.00 200.00 
L 200.00 200.00
L 200.00 0.00
L 0.00 0.00
L 0.00 200.00
M 112.00 88.00 
C 125.74 88.44 144.79 87.42 158.00 88.00 C 171.21 88.58 181.96 85.64 183.57 97.77 C 185.19 109.89 171.21 113.84 158.00 112.00 C 144.79 110.16 125.74 113.38 112.00 112.00
C 112.47 125.98 111.38 146.69 112.00 160.00 C 112.62 173.31 112.03 183.94 99.92 183.93 C 87.81 183.93 87.51 173.29 88.00 160.00 C 88.49 146.71 87.63 125.97 88.00 112.00
C 70.76 112.71 48.76 111.06 32.00 112.00 C 15.24 112.94 12.93 97.37 23.00 88.00
C 43.12 88.18 66.58 87.87 88.00 88.00
C 87.53 74.02 88.62 53.31 88.00 40.00 C 87.38 26.69 87.97 16.06 100.08 16.07 C 112.19 16.07 112.49 26.71 112.00 40.00 C 111.51 53.29 112.37 74.03 112.00 88.00 Z"/>
</g>
<g fill="None" fill-opacity="0.0" stroke="#000000" stroke-opacity="1.00" stroke-width="0.3"><path d="
M 112.00 88.00 
C 112.37 74.03 111.51 53.29 112.00 40.00 C 112.49 26.71 112.19 16.07 100.08 16.07 C 87.97 16.06 87.38 26.69 88.00 40.00 C 88.62 53.31 87.53 74.02 88.00 88.00
C 66.58 87.87 43.12 88.18 23.00 88.00
C 12.93 97.37 15.24 112.94 32.00 112.00 C 48.76 111.06 70.76 112.71 88.00 112.00
C 87.63 125.97 88.49 146.71 88.00 160.00 C 87.51 173.29 87.81 183.93 99.92 183.93 C 112.03 183.94 112.62 173.31 112.00 160.00 C 111.38 146.69 112.47 125.98 112.00 112.00
C 125.74 113.38 144.79 110.16 158.00 112.00 C 171.21 113.84 185.19 109.89 183.57 97.77 C 181.96 85.64 171.21 88.58 158.00 88.00 C 144.79 87.42 125.74 88.44 112.00 88.00 Z"/>
</g>
<g fill="#000000" fill-opacity="0.00" stroke="None">
<path d="
M 0.00 200.00 
L 200.00 200.00
L 200.00 0.00
L 0.00 0.00
L 0.00 200.00
M 112.00 88.00 
C 125.74 88.44 144.79 87.42 158.00 88.00 C 171.21 88.58 181.96 85.64 183.57 97.77 C 185.19 109.89 171.21 113.84 158.00 112.00 C 144.79 110.16 125.74 113.38 112.00 112.00
C 112.47 125.98 111.38 146.69 112.00 160.00 C 112.62 173.31 112.03 183.94 99.92 183.93 C 87.81 183.93 87.51 173.29 88.00 160.00 C 88.49 146.71 87.63 125.97 88.00 112.00
C 70.76 112.71 48.76 111.06 32.00 112.00 C 15.24 112.94 12.93 97.37 23.00 88.00
C 43.12 88.18 66.58 87.87 88.00 88.00
C 87.53 74.02 88.62 53.31 88.00 40.00 C 87.38 26.69 87.97 16.06 100.08 16.07 C 112.19 16.07 112.49 26.71 112.00 40.00 C 111.51 53.29 112.37 74.03 112.00 88.00 Z"/>
</g>
<g fill="#000000" fill-opacity="1.00" stroke="None">
<path d="
M 112.00 88.00 
C 112.37 74.03 111.51 53.29 112.00 40.00 C 112.49 26.71 112.19 16.07 100.08 16.07 C 87.97 16.06 87.38 26.69 88.00 40.00 C 88.62 53.31 87.53 74.02 88.00 88.00
C 66.58 87.87 43.12 88.18 23.00 88.00
C 12.93 97.37 15.24 112.94 32.00 112.00 C 48.76 111.06 70.76 112.71 88.00 112.00
C 87.63 125.97 88.49 146.71 88.00 160.00 C 87.51 173.29 87.81 183.93 99.92 183.93 C 112.03 183.94 112.62 173.31 112.00 160.00 C 111.38 146.69 112.47 125.98 112.00 112.00
C 125.74 113.38 144.79 110.16 158.00 112.00 C 171.21 113.84 185.19 109.89 183.57 97.77 C 181.96 85.64 171.21 88.58 158.00 88.00 C 144.79 87.42 125.74 88.44 112.00 88.00 Z"/>
</g>
</svg>