<svg xmlns="http://www.w3.org/2000/svg" xmlns:v="https://svgstorm.com"
viewBox = "0 0 600 600"
width="600"
height="600">
<g fill="None" fill-opacity="0.0" stroke="#000000" stroke-opacity="0.00" stroke-width="0.3"><path d="
M 0.00 600.00 
L 600.00 600.00
L 600.00 0.00
L 0.00 0.00
L 0.00 600.00
M 299.00 319.00 
C 307.69 311.48 318.87 302.71 326.25 293.25 C 333.62 283.79 343.23 274.59 351.75 265.75 C 360.28 256.91 370.71 245.81 380.25 256.75 C 389.79 267.69 376.73 275.16 368.75 284.75 C 360.77 294.34 349.91 301.93 341.25 311.25 C 332.59 320.57 323.03 326.98 314.75 337.75 C 306.47 348.52 295.38 350.69 286.75 339.25 C 278.12 327.81 268.86 322.80 260.25 312.75 C 251.63 302.70 240.82 296.22 232.75 286.25 C 224.68 276.28 210.95 269.60 218.13 258.08 C 225.31 246.56 238.75 254.61 246.75 264.25 C 254.76 273.88 264.77 281.63 272.75 291.25 C 280.73 300.86 292.80 308.95 299.00 319.00 Z"/>
</g>
<g fill="None" fill-opacity="0.0" stroke="#000000" stroke-opacity="0.97" stroke-width="0.3"><path d="
M 299.00 319.00 
C 292.80 308.95 280.73 300.86 272.75 291.25 C 264.77 281.63 254.76 273.88 246.75 264.25 C 238.75 254.61 225.31 246.56 218.13 258.08 C 210.95 269.60 224.68 276.28 232.75 286.25 C 240.82 296.22 251.63 302.70 260.25 312.75 C 268.86 322.80 278.12 327.81 286.75 339.25 C 295.38 350.69 306.47 348.52 314.75 337.75 C 323.03 326.98 332.59 320.57 341.25 311.25 C 349.91 301.93 360.77 294.34 368.75 284.75 C 376.73 275.16 389.79 267.69 380.25 256.75 C 370.71 245.81 360.28 256.91 351.75 265.75 C 343.23 274.59 333.62 283.79 326.25 293.25 C 318.87 302.71 307.69 311.48 299.00 319.00 Z"/>
</g>
<g fill="#000000" fill-opacity="0.00" stroke="None">
<path d="
M 0.00 600.00 
L 600.00 600.00
L 600.00 0.00
L 0.00 0.00
L 0.00 600.00
M 299.00 319.00 
C 307.69 311.48 318.87 302.71 326.25 293.25 C 333.62 283.79 343.23 274.59 351.75 265.75 C 360.28 256.91 370.71 245.81 380.25 256.75 C 389.79 267.69 376.73 275.16 368.75 284.75 C 360.77 294.34 349.91 301.93 341.25 311.25 C 332.59 320.57 323.03 326.98 314.75 337.75 C 306.47 348.52 295.38 350.69 286.75 339.25 C 278.12 327.81 268.86 322.80 260.25 312.75 C 251.63 302.70 240.82 296.22 232.75 286.25 C 224.68 276.28 210.95 269.60 218.13 258.08 C 225.31 246.56 238.75 254.61 246.75 264.25 C 254.76 273.88 264.77 281.63 272.75 291.25 C 280.73 300.86 292.80 308.95 299.00 319.00 Z"/>
</g>
<g fill="#000000" fill-opacity="0.97" stroke="None">
<path d="
M 299.00 319.00 
C 292.80 308.95 280.73 300.86 272.75 291.25 C 264.77 281.63 254.76 273.88 246.75 264.25 C 238.75 254.61 225.31 246.56 218.13 258.08 C 210.95 269.60 224.68 276.28 232.75 286.25 C 240.82 296.22 251.63 302.70 260.25 312.75 C 268.86 322.80 278.12 327.81 286.75 339.25 C 295.38 350.69 306.47 348.52 314.75 337.75 C 323.03 326.98 332.59 320.57 341.25 311.25 C 349.91 301.93 360.77 294.34 368.75 284.75 C 376.73 275.16 389.79 267.69 380.25 256.75 C 370.71 245.81 360.28 256.91 351.75 265.75 C 343.23 274.59 333.62 283.79 326.25 293.25 C 318.87 302.71 307.69 311.48 299.00 319.00 Z"/>
</g>
</svg>