<svg xmlns="http://www.w3.org/2000/svg" xmlns:v="https://svgstorm.com"
viewBox = "0 0 600 600"
width="600"
height="600">
<g fill="None" fill-opacity="0.0" stroke="#000000" stroke-opacity="0.00" stroke-width="0.3"><path d="
M 0.00 600.00 
L 600.00 600.00
L 600.00 0.00
L 0.00 0.00
L 0.00 600.00
M 281.00 300.00 
C 290.42 310.55 302.67 322.20 313.25 331.75 C 323.82 341.30 335.41 354.95 345.10 363.90 C 354.79 372.85 339.86 391.48 328.75 382.20 C 317.64 372.93 309.32 359.42 297.25 349.75 C 285.18 340.09 278.36 327.64 265.25 317.75 C 252.14 307.86 248.31 296.43 261.75 285.75 C 275.19 275.07 282.14 264.81 293.25 253.25 C 304.35 241.69 315.05 233.53 325.25 221.25 C 335.45 208.96 355.19 222.81 345.69 235.69 C 336.20 248.58 323.92 256.00 313.75 267.75 C 303.58 279.51 290.17 287.92 281.00 300.00 Z"/>
</g>
<g fill="None" fill-opacity="0.0" stroke="#000000" stroke-opacity="0.98" stroke-width="0.3"><path d="
M 281.00 300.00 
C 290.17 287.92 303.58 279.51 313.75 267.75 C 323.92 256.00 336.20 248.58 345.69 235.69 C 355.19 222.81 335.45 208.96 325.25 221.25 C 315.05 233.53 304.35 241.69 293.25 253.25 C 282.14 264.81 275.19 275.07 261.75 285.75 C 248.31 296.43 252.14 307.86 265.25 317.75 C 278.36 327.64 285.18 340.09 297.25 349.75 C 309.32 359.42 317.64 372.93 328.75 382.20 C 339.86 391.48 354.79 372.85 345.10 363.90 C 335.41 354.95 323.82 341.30 313.25 331.75 C 302.67 322.20 290.42 310.55 281.00 300.00 Z"/>
</g>
<g fill="#000000" fill-opacity="0.00" stroke="None">
<path d="
M 0.00 600.00 
L 600.00 600.00
L 600.00 0.00
L 0.00 0.00
L 0.00 600.00
M 281.00 300.00 
C 290.42 310.55 302.67 322.20 313.25 331.75 C 323.82 341.30 335.41 354.95 345.10 363.90 C 354.79 372.85 339.86 391.48 328.75 382.20 C 317.64 372.93 309.32 359.42 297.25 349.75 C 285.18 340.09 278.36 327.64 265.25 317.75 C 252.14 307.86 248.31 296.43 261.75 285.75 C 275.19 275.07 282.14 264.81 293.25 253.25 C 304.35 241.69 315.05 233.53 325.25 221.25 C 335.45 208.96 355.19 222.81 345.69 235.69 C 336.20 248.58 323.92 256.00 313.75 267.75 C 303.58 279.51 290.17 287.92 281.00 300.00 Z"/>
</g>
<g fill="#000000" fill-opacity="0.98" stroke="None">
<path d="
M 281.00 300.00 
C 290.17 287.92 303.58 279.51 313.75 267.75 C 323.92 256.00 336.20 248.58 345.69 235.69 C 355.19 222.81 335.45 208.96 325.25 221.25 C 315.05 233.53 304.35 241.69 293.25 253.25 C 282.14 264.81 275.19 275.07 261.75 285.75 C 248.31 296.43 252.14 307.86 265.25 317.75 C 278.36 327.64 285.18 340.09 297.25 349.75 C 309.32 359.42 317.64 372.93 328.75 382.20 C 339.86 391.48 354.79 372.85 345.10 363.90 C 335.41 354.95 323.82 341.30 313.25 331.75 C 302.67 322.20 290.42 310.55 281.00 300.00 Z"/>
</g>
</svg>