<svg xmlns="http://www.w3.org/2000/svg" xmlns:v="https://svgstorm.com"
viewBox = "0 0 600 600"
width="600"
height="600">
<g fill="None" fill-opacity="0.0" stroke="#ffffff" stroke-opacity="0.00" stroke-width="0.3"><path d="
M 0.00 600.00 
L 600.00 600.00
L 600.00 0.00
L 0.00 0.00
L 0.00 600.00
M 300.00 281.00 
C 288.10 290.17 279.76 302.57 269.25 313.25 C 258.74 323.93 249.12 334.38 237.75 344.75 C 226.39 355.12 210.49 338.51 221.25 327.25 C 232.01 315.98 239.46 306.74 251.25 295.25 C 263.03 283.75 272.58 278.09 283.25 264.25 C 293.92 250.41 305.57 249.98 316.25 263.75 C 326.92 277.53 336.57 283.31 347.75 295.25 C 358.94 307.19 369.32 314.38 379.92 327.08 C 390.52 339.78 373.29 354.98 361.75 344.24 C 350.21 333.50 341.55 323.76 332.25 312.75 C 322.95 301.74 309.48 290.95 300.00 281.00 Z"/>
</g>
<g fill="None" fill-opacity="0.0" stroke="#ffffff" stroke-opacity="0.97" stroke-width="0.3"><path d="
M 300.00 281.00 
C 309.48 290.95 322.95 301.74 332.25 312.75 C 341.55 323.76 350.21 333.50 361.75 344.24 C 373.29 354.98 390.52 339.78 379.92 327.08 C 369.32 314.38 358.94 307.19 347.75 295.25 C 336.57 283.31 326.92 277.53 316.25 263.75 C 305.57 249.98 293.92 250.41 283.25 264.25 C 272.58 278.09 263.03 283.75 251.25 295.25 C 239.46 306.74 232.01 315.98 221.25 327.25 C 210.49 338.51 226.39 355.12 237.75 344.75 C 249.12 334.38 258.74 323.93 269.25 313.25 C 279.76 302.57 288.10 290.17 300.00 281.00 Z"/>
</g>
<g fill="#ffffff" fill-opacity="0.00" stroke="None">
<path d="
M 0.00 600.00 
L 600.00 600.00
L 600.00 0.00
L 0.00 0.00
L 0.00 600.00
M 300.00 281.00 
C 288.10 290.17 279.76 302.57 269.25 313.25 C 258.74 323.93 249.12 334.38 237.75 344.75 C 226.39 355.12 210.49 338.51 221.25 327.25 C 232.01 315.98 239.46 306.74 251.25 295.25 C 263.03 283.75 272.58 278.09 283.25 264.25 C 293.92 250.41 305.57 249.98 316.25 263.75 C 326.92 277.53 336.57 283.31 347.75 295.25 C 358.94 307.19 369.32 314.38 379.92 327.08 C 390.52 339.78 373.29 354.98 361.75 344.24 C 350.21 333.50 341.55 323.76 332.25 312.75 C 322.95 301.74 309.48 290.95 300.00 281.00 Z"/>
</g>
<g fill="#ffffff" fill-opacity="0.97" stroke="None">
<path d="
M 300.00 281.00 
C 309.48 290.95 322.95 301.74 332.25 312.75 C 341.55 323.76 350.21 333.50 361.75 344.24 C 373.29 354.98 390.52 339.78 379.92 327.08 C 369.32 314.38 358.94 307.19 347.75 295.25 C 336.57 283.31 326.92 277.53 316.25 263.75 C 305.57 249.98 293.92 250.41 283.25 264.25 C 272.58 278.09 263.03 283.75 251.25 295.25 C 239.46 306.74 232.01 315.98 221.25 327.25 C 210.49 338.51 226.39 355.12 237.75 344.75 C 249.12 334.38 258.74 323.93 269.25 313.25 C 279.76 302.57 288.10 290.17 300.00 281.00 Z"/>
</g>
</svg>