<svg xmlns="http://www.w3.org/2000/svg" xmlns:v="https://svgstorm.com"
viewBox = "0 0 600 600"
width="600"
height="600">
<g fill="None" fill-opacity="0.0" stroke="#ee5252" stroke-opacity="0.00" stroke-width="0.3"><path d="
M 0.00 600.00 
L 600.00 600.00
L 600.00 0.00
L 0.00 0.00
L 0.00 600.00
M 271.00 267.00 
C 273.90 276.78 278.87 283.40 285.13 291.92 C 291.39 300.43 303.32 311.34 311.08 316.92 C 318.84 322.49 331.05 332.95 339.25 322.25 C 347.44 311.54 359.07 310.34 368.92 316.13 C 378.77 321.92 386.21 334.60 396.75 343.25 C 407.29 351.90 415.98 359.50 418.20 371.25 C 420.42 383.00 411.36 394.04 402.08 400.13 C 392.80 406.22 384.68 412.40 374.75 415.19 C 364.82 417.99 351.66 421.61 338.78 419.78 C 325.89 417.95 319.03 415.10 309.08 410.87 C 299.14 406.64 288.41 401.33 279.32 394.68 C 270.23 388.03 261.51 380.41 251.25 371.75 C 240.99 363.09 232.80 352.30 224.75 343.25 C 216.71 334.20 209.44 325.80 203.10 315.90 C 196.75 306.01 193.88 300.14 189.81 290.75 C 185.74 281.36 182.84 272.54 181.79 259.77 C 180.73 247.01 181.62 233.28 185.80 222.75 C 189.98 212.23 196.42 202.94 203.70 193.70 C 210.99 184.47 221.42 175.79 233.25 181.19 C 245.09 186.59 253.05 198.59 263.25 207.75 C 273.45 216.92 281.97 225.32 286.19 236.25 C 290.41 247.18 281.82 260.94 271.00 267.00 Z"/>
</g>
<g fill="None" fill-opacity="0.0" stroke="#ee5252" stroke-opacity="0.98" stroke-width="0.3"><path d="
M 271.00 267.00 
C 281.82 260.94 290.41 247.18 286.19 236.25 C 281.97 225.32 273.45 216.92 263.25 207.75 C 253.05 198.59 245.09 186.59 233.25 181.19 C 221.42 175.79 210.99 184.47 203.70 193.70 C 196.42 202.94 189.98 212.23 185.80 222.75 C 181.62 233.28 180.73 247.01 181.79 259.77 C 182.84 272.54 185.74 281.36 189.81 290.75 C 193.88 300.14 196.75 306.01 203.10 315.90 C 209.44 325.80 216.71 334.20 224.75 343.25 C 232.80 352.30 240.99 363.09 251.25 371.75 C 261.51 380.41 270.23 388.03 279.32 394.68 C 288.41 401.33 299.14 406.64 309.08 410.87 C 319.03 415.10 325.89 417.95 338.78 419.78 C 351.66 421.61 364.82 417.99 374.75 415.19 C 384.68 412.40 392.80 406.22 402.08 400.13 C 411.36 394.04 420.42 383.00 418.20 371.25 C 415.98 359.50 407.29 351.90 396.75 343.25 C 386.21 334.60 378.77 321.92 368.92 316.13 C 359.07 310.34 347.44 311.54 339.25 322.25 C 331.05 332.95 318.84 322.49 311.08 316.92 C 303.32 311.34 291.39 300.43 285.13 291.92 C 278.87 283.40 273.90 276.78 271.00 267.00
M 263.00 243.00 
C 248.29 250.83 242.06 264.85 247.58 275.77 C 253.09 286.69 256.47 292.44 263.71 303.30 C 270.95 314.17 283.21 325.16 293.25 333.19 C 303.30 341.21 312.88 345.75 322.92 352.13 C 332.96 358.51 347.76 353.58 356.00 338.00
C 363.70 342.85 371.07 351.76 377.75 358.25 C 384.43 364.74 396.72 373.23 389.25 379.25 C 381.79 385.28 378.85 386.86 371.75 390.19 C 364.64 393.52 357.91 395.65 348.97 395.02 C 340.03 394.39 331.37 395.04 324.25 391.60 C 317.14 388.16 313.44 386.77 307.08 382.87 C 300.72 378.97 292.32 375.13 286.25 369.74 C 280.17 364.34 273.90 359.49 266.75 353.25 C 259.60 347.00 253.95 338.26 247.61 332.25 C 241.26 326.23 235.35 318.85 230.87 313.08 C 226.40 307.31 220.94 298.01 217.61 292.25 C 214.27 286.49 211.79 281.39 209.60 274.25 C 207.41 267.12 204.24 259.34 205.00 249.00 C 205.76 238.66 207.60 233.44 211.30 225.30 C 215.01 217.16 219.76 212.52 224.00 205.00
C 237.91 215.77 250.46 230.27 263.00 243.00 Z"/>
</g>
<g fill="None" fill-opacity="0.0" stroke="#ee5252" stroke-opacity="0.02" stroke-width="0.3"><path d="
M 263.00 243.00 
C 250.46 230.27 237.91 215.77 224.00 205.00
C 219.76 212.52 215.01 217.16 211.30 225.30 C 207.60 233.44 205.76 238.66 205.00 249.00 C 204.24 259.34 207.41 267.12 209.60 274.25 C 211.79 281.39 214.27 286.49 217.61 292.25 C 220.94 298.01 226.40 307.31 230.87 313.08 C 235.35 318.85 241.26 326.23 247.61 332.25 C 253.95 338.26 259.60 347.00 266.75 353.25 C 273.90 359.49 280.17 364.34 286.25 369.74 C 292.32 375.13 300.72 378.97 307.08 382.87 C 313.44 386.77 317.14 388.16 324.25 391.60 C 331.37 395.04 340.03 394.39 348.97 395.02 C 357.91 395.65 364.64 393.52 371.75 390.19 C 378.85 386.86 381.79 385.28 389.25 379.25 C 396.72 373.23 384.43 364.74 377.75 358.25 C 371.07 351.76 363.70 342.85 356.00 338.00
C 347.76 353.58 332.96 358.51 322.92 352.13 C 312.88 345.75 303.30 341.21 293.25 333.19 C 283.21 325.16 270.95 314.17 263.71 303.30 C 256.47 292.44 253.09 286.69 247.58 275.77 C 242.06 264.85 248.29 250.83 263.00 243.00 Z"/>
</g>
<g fill="#ee5252" fill-opacity="0.00" stroke="None">
<path d="
M 0.00 600.00 
L 600.00 600.00
L 600.00 0.00
L 0.00 0.00
L 0.00 600.00
M 271.00 267.00 
C 273.90 276.78 278.87 283.40 285.13 291.92 C 291.39 300.43 303.32 311.34 311.08 316.92 C 318.84 322.49 331.05 332.95 339.25 322.25 C 347.44 311.54 359.07 310.34 368.92 316.13 C 378.77 321.92 386.21 334.60 396.75 343.25 C 407.29 351.90 415.98 359.50 418.20 371.25 C 420.42 383.00 411.36 394.04 402.08 400.13 C 392.80 406.22 384.68 412.40 374.75 415.19 C 364.82 417.99 351.66 421.61 338.78 419.78 C 325.89 417.95 319.03 415.10 309.08 410.87 C 299.14 406.64 288.41 401.33 279.32 394.68 C 270.23 388.03 261.51 380.41 251.25 371.75 C 240.99 363.09 232.80 352.30 224.75 343.25 C 216.71 334.20 209.44 325.80 203.10 315.90 C 196.75 306.01 193.88 300.14 189.81 290.75 C 185.74 281.36 182.84 272.54 181.79 259.77 C 180.73 247.01 181.62 233.28 185.80 222.75 C 189.98 212.23 196.42 202.94 203.70 193.70 C 210.99 184.47 221.42 175.79 233.25 181.19 C 245.09 186.59 253.05 198.59 263.25 207.75 C 273.45 216.92 281.97 225.32 286.19 236.25 C 290.41 247.18 281.82 260.94 271.00 267.00 Z"/>
</g>
<g fill="#ee5252" fill-opacity="0.98" stroke="None">
<path d="
M 271.00 267.00 
C 281.82 260.94 290.41 247.18 286.19 236.25 C 281.97 225.32 273.45 216.92 263.25 207.75 C 253.05 198.59 245.09 186.59 233.25 181.19 C 221.42 175.79 210.99 184.47 203.70 193.70 C 196.42 202.94 189.98 212.23 185.80 222.75 C 181.62 233.28 180.73 247.01 181.79 259.77 C 182.84 272.54 185.74 281.36 189.81 290.75 C 193.88 300.14 196.75 306.01 203.10 315.90 C 209.44 325.80 216.71 334.20 224.75 343.25 C 232.80 352.30 240.99 363.09 251.25 371.75 C 261.51 380.41 270.23 388.03 279.32 394.68 C 288.41 401.33 299.14 406.64 309.08 410.87 C 319.03 415.10 325.89 417.95 338.78 419.78 C 351.66 421.61 364.82 417.99 374.75 415.19 C 384.68 412.40 392.80 406.22 402.08 400.13 C 411.36 394.04 420.42 383.00 418.20 371.25 C 415.98 359.50 407.29 351.90 396.75 343.25 C 386.21 334.60 378.77 321.92 368.92 316.13 C 359.07 310.34 347.44 311.54 339.25 322.25 C 331.05 332.95 318.84 322.49 311.08 316.92 C 303.32 311.34 291.39 300.43 285.13 291.92 C 278.87 283.40 273.90 276.78 271.00 267.00
M 263.00 243.00 
C 248.29 250.83 242.06 264.85 247.58 275.77 C 253.09 286.69 256.47 292.44 263.71 303.30 C 270.95 314.17 283.21 325.16 293.25 333.19 C 303.30 341.21 312.88 345.75 322.92 352.13 C 332.96 358.51 347.76 353.58 356.00 338.00
C 363.70 342.85 371.07 351.76 377.75 358.25 C 384.43 364.74 396.72 373.23 389.25 379.25 C 381.79 385.28 378.85 386.86 371.75 390.19 C 364.64 393.52 357.91 395.65 348.97 395.02 C 340.03 394.39 331.37 395.04 324.25 391.60 C 317.14 388.16 313.44 386.77 307.08 382.87 C 300.72 378.97 292.32 375.13 286.25 369.74 C 280.17 364.34 273.90 359.49 266.75 353.25 C 259.60 347.00 253.95 338.26 247.61 332.25 C 241.26 326.23 235.35 318.85 230.87 313.08 C 226.40 307.31 220.94 298.01 217.61 292.25 C 214.27 286.49 211.79 281.39 209.60 274.25 C 207.41 267.12 204.24 259.34 205.00 249.00 C 205.76 238.66 207.60 233.44 211.30 225.30 C 215.01 217.16 219.76 212.52 224.00 205.00
C 237.91 215.77 250.46 230.27 263.00 243.00 Z"/>
</g>
<g fill="#ee5252" fill-opacity="0.02" stroke="None">
<path d="
M 263.00 243.00 
C 250.46 230.27 237.91 215.77 224.00 205.00
C 219.76 212.52 215.01 217.16 211.30 225.30 C 207.60 233.44 205.76 238.66 205.00 249.00 C 204.24 259.34 207.41 267.12 209.60 274.25 C 211.79 281.39 214.27 286.49 217.61 292.25 C 220.94 298.01 226.40 307.31 230.87 313.08 C 235.35 318.85 241.26 326.23 247.61 332.25 C 253.95 338.26 259.60 347.00 266.75 353.25 C 273.90 359.49 280.17 364.34 286.25 369.74 C 292.32 375.13 300.72 378.97 307.08 382.87 C 313.44 386.77 317.14 388.16 324.25 391.60 C 331.37 395.04 340.03 394.39 348.97 395.02 C 357.91 395.65 364.64 393.52 371.75 390.19 C 378.85 386.86 381.79 385.28 389.25 379.25 C 396.72 373.23 384.43 364.74 377.75 358.25 C 371.07 351.76 363.70 342.85 356.00 338.00
C 347.76 353.58 332.96 358.51 322.92 352.13 C 312.88 345.75 303.30 341.21 293.25 333.19 C 283.21 325.16 270.95 314.17 263.71 303.30 C 256.47 292.44 253.09 286.69 247.58 275.77 C 242.06 264.85 248.29 250.83 263.00 243.00 Z"/>
</g>
</svg>