<svg xmlns="http://www.w3.org/2000/svg" xmlns:v="https://svgstorm.com"
viewBox = "0 0 300 300"
width="300"
height="300">
<g fill="None" fill-opacity="0.0" stroke="#000000" stroke-opacity="0.01" stroke-width="0.3"><path d="
M 0.00 300.00 
L 300.00 300.00
L 300.00 0.00
L 0.00 0.00
L 0.00 300.00
M 210.00 31.00 
C 220.75 33.89 225.00 48.07 235.25 53.75 C 245.49 59.44 248.23 70.77 259.25 77.75 C 270.27 84.73 268.30 99.62 257.25 106.25 C 246.20 112.88 243.43 124.65 233.75 131.75 C 224.07 138.85 218.04 147.39 209.25 155.25 C 200.46 163.11 193.01 170.35 184.25 178.25 C 175.49 186.15 168.58 194.90 160.25 203.25 C 151.91 211.60 144.10 217.55 135.75 226.75 C 127.40 235.95 119.64 239.65 111.75 250.75 C 103.86 261.85 84.13 257.14 73.00 257.00 C 61.87 256.86 39.35 261.07 39.02 244.98 C 38.70 228.89 39.15 213.68 39.99 199.99 C 40.84 186.30 56.28 183.30 62.25 173.25 C 68.22 163.19 77.29 156.59 85.25 148.25 C 93.20 139.91 101.04 131.72 109.75 124.75 C 118.45 117.77 126.72 108.54 134.75 100.75 C 142.78 92.96 150.15 83.56 158.25 76.25 C 166.35 68.94 173.26 57.57 182.25 52.25 C 191.23 46.93 198.30 27.86 210.00 31.00 Z"/>
</g>
<g fill="None" fill-opacity="0.0" stroke="#000000" stroke-opacity="0.96" stroke-width="0.3"><path d="
M 210.00 31.00 
C 198.30 27.86 191.23 46.93 182.25 52.25 C 173.26 57.57 166.35 68.94 158.25 76.25 C 150.15 83.56 142.78 92.96 134.75 100.75 C 126.72 108.54 118.45 117.77 109.75 124.75 C 101.04 131.72 93.20 139.91 85.25 148.25 C 77.29 156.59 68.22 163.19 62.25 173.25 C 56.28 183.30 40.84 186.30 39.99 199.99 C 39.15 213.68 38.70 228.89 39.02 244.98 C 39.35 261.07 61.87 256.86 73.00 257.00 C 84.13 257.14 103.86 261.85 111.75 250.75 C 119.64 239.65 127.40 235.95 135.75 226.75 C 144.10 217.55 151.91 211.60 160.25 203.25 C 168.58 194.90 175.49 186.15 184.25 178.25 C 193.01 170.35 200.46 163.11 209.25 155.25 C 218.04 147.39 224.07 138.85 233.75 131.75 C 243.43 124.65 246.20 112.88 257.25 106.25 C 268.30 99.62 270.27 84.73 259.25 77.75 C 248.23 70.77 245.49 59.44 235.25 53.75 C 225.00 48.07 220.75 33.89 210.00 31.00
M 210.00 62.00 
C 218.90 71.74 226.65 82.55 237.00 91.00
C 232.62 96.81 222.57 112.42 215.25 104.75 C 207.93 97.07 200.59 90.91 193.75 83.25 C 186.91 75.58 204.77 66.12 210.00 62.00
M 65.00 234.00 
C 65.47 222.82 61.93 205.55 70.70 198.70 C 79.46 191.85 83.96 184.56 91.75 177.75 C 99.55 170.95 104.81 163.85 112.25 157.25 C 119.69 150.65 125.79 142.03 132.25 135.25 C 138.70 128.46 146.88 121.08 152.75 114.75 C 158.62 108.42 169.87 94.55 177.25 102.75 C 184.62 110.96 191.09 116.03 198.25 122.75 C 205.40 129.48 188.90 138.66 184.25 145.25 C 179.60 151.84 169.90 159.01 163.75 165.75 C 157.60 172.50 149.79 180.29 142.25 186.25 C 134.71 192.20 129.16 199.76 121.75 206.75 C 114.34 213.74 107.14 218.53 100.25 227.25 C 93.36 235.97 75.47 233.89 65.00 234.00 Z"/>
</g>
<g fill="None" fill-opacity="0.0" stroke="#000000" stroke-opacity="0.05" stroke-width="0.3"><path d="
M 210.00 62.00 
C 204.77 66.12 186.91 75.58 193.75 83.25 C 200.59 90.91 207.93 97.07 215.25 104.75 C 222.57 112.42 232.62 96.81 237.00 91.00
C 226.65 82.55 218.90 71.74 210.00 62.00 Z"/>
</g>
<g fill="None" fill-opacity="0.0" stroke="#000000" stroke-opacity="0.02" stroke-width="0.3"><path d="
M 65.00 234.00 
C 75.47 233.89 93.36 235.97 100.25 227.25 C 107.14 218.53 114.34 213.74 121.75 206.75 C 129.16 199.76 134.71 192.20 142.25 186.25 C 149.79 180.29 157.60 172.50 163.75 165.75 C 169.90 159.01 179.60 151.84 184.25 145.25 C 188.90 138.66 205.40 129.48 198.25 122.75 C 191.09 116.03 184.62 110.96 177.25 102.75 C 169.87 94.55 158.62 108.42 152.75 114.75 C 146.88 121.08 138.70 128.46 132.25 135.25 C 125.79 142.03 119.69 150.65 112.25 157.25 C 104.81 163.85 99.55 170.95 91.75 177.75 C 83.96 184.56 79.46 191.85 70.70 198.70 C 61.93 205.55 65.47 222.82 65.00 234.00 Z"/>
</g>
<g fill="#000000" fill-opacity="0.01" stroke="None">
<path d="
M 0.00 300.00 
L 300.00 300.00
L 300.00 0.00
L 0.00 0.00
L 0.00 300.00
M 210.00 31.00 
C 220.75 33.89 225.00 48.07 235.25 53.75 C 245.49 59.44 248.23 70.77 259.25 77.75 C 270.27 84.73 268.30 99.62 257.25 106.25 C 246.20 112.88 243.43 124.65 233.75 131.75 C 224.07 138.85 218.04 147.39 209.25 155.25 C 200.46 163.11 193.01 170.35 184.25 178.25 C 175.49 186.15 168.58 194.90 160.25 203.25 C 151.91 211.60 144.10 217.55 135.75 226.75 C 127.40 235.95 119.64 239.65 111.75 250.75 C 103.86 261.85 84.13 257.14 73.00 257.00 C 61.87 256.86 39.35 261.07 39.02 244.98 C 38.70 228.89 39.15 213.68 39.99 199.99 C 40.84 186.30 56.28 183.30 62.25 173.25 C 68.22 163.19 77.29 156.59 85.25 148.25 C 93.20 139.91 101.04 131.72 109.75 124.75 C 118.45 117.77 126.72 108.54 134.75 100.75 C 142.78 92.96 150.15 83.56 158.25 76.25 C 166.35 68.94 173.26 57.57 182.25 52.25 C 191.23 46.93 198.30 27.86 210.00 31.00 Z"/>
</g>
<g fill="#000000" fill-opacity="0.96" stroke="None">
<path d="
M 210.00 31.00 
C 198.30 27.86 191.23 46.93 182.25 52.25 C 173.26 57.57 166.35 68.94 158.25 76.25 C 150.15 83.56 142.78 92.96 134.75 100.75 C 126.72 108.54 118.45 117.77 109.75 124.75 C 101.04 131.72 93.20 139.91 85.25 148.25 C 77.29 156.59 68.22 163.19 62.25 173.25 C 56.28 183.30 40.84 186.30 39.99 199.99 C 39.15 213.68 38.70 228.89 39.02 244.98 C 39.35 261.07 61.87 256.86 73.00 257.00 C 84.13 257.14 103.86 261.85 111.75 250.75 C 119.64 239.65 127.40 235.95 135.75 226.75 C 144.10 217.55 151.91 211.60 160.25 203.25 C 168.58 194.90 175.49 186.15 184.25 178.25 C 193.01 170.35 200.46 163.11 209.25 155.25 C 218.04 147.39 224.07 138.85 233.75 131.75 C 243.43 124.65 246.20 112.88 257.25 106.25 C 268.30 99.62 270.27 84.73 259.25 77.75 C 248.23 70.77 245.49 59.44 235.25 53.75 C 225.00 48.07 220.75 33.89 210.00 31.00
M 210.00 62.00 
C 218.90 71.74 226.65 82.55 237.00 91.00
C 232.62 96.81 222.57 112.42 215.25 104.75 C 207.93 97.07 200.59 90.91 193.75 83.25 C 186.91 75.58 204.77 66.12 210.00 62.00
M 65.00 234.00 
C 65.47 222.82 61.93 205.55 70.70 198.70 C 79.46 191.85 83.96 184.56 91.75 177.75 C 99.55 170.95 104.81 163.85 112.25 157.25 C 119.69 150.65 125.79 142.03 132.25 135.25 C 138.70 128.46 146.88 121.08 152.75 114.75 C 158.62 108.42 169.87 94.55 177.25 102.75 C 184.62 110.96 191.09 116.03 198.25 122.75 C 205.40 129.48 188.90 138.66 184.25 145.25 C 179.60 151.84 169.90 159.01 163.75 165.75 C 157.60 172.50 149.79 180.29 142.25 186.25 C 134.71 192.20 129.16 199.76 121.75 206.75 C 114.34 213.74 107.14 218.53 100.25 227.25 C 93.36 235.97 75.47 233.89 65.00 234.00 Z"/>
</g>
<g fill="#000000" fill-opacity="0.05" stroke="None">
<path d="
M 210.00 62.00 
C 204.77 66.12 186.91 75.58 193.75 83.25 C 200.59 90.91 207.93 97.07 215.25 104.75 C 222.57 112.42 232.62 96.81 237.00 91.00
C 226.65 82.55 218.90 71.74 210.00 62.00 Z"/>
</g>
<g fill="#000000" fill-opacity="0.02" stroke="None">
<path d="
M 65.00 234.00 
C 75.47 233.89 93.36 235.97 100.25 227.25 C 107.14 218.53 114.34 213.74 121.75 206.75 C 129.16 199.76 134.71 192.20 142.25 186.25 C 149.79 180.29 157.60 172.50 163.75 165.75 C 169.90 159.01 179.60 151.84 184.25 145.25 C 188.90 138.66 205.40 129.48 198.25 122.75 C 191.09 116.03 184.62 110.96 177.25 102.75 C 169.87 94.55 158.62 108.42 152.75 114.75 C 146.88 121.08 138.70 128.46 132.25 135.25 C 125.79 142.03 119.69 150.65 112.25 157.25 C 104.81 163.85 99.55 170.95 91.75 177.75 C 83.96 184.56 79.46 191.85 70.70 198.70 C 61.93 205.55 65.47 222.82 65.00 234.00 Z"/>
</g>
</svg>