<svg xmlns="http://www.w3.org/2000/svg" xmlns:v="https://svgstorm.com"
viewBox = "0 0 600 600"
width="600"
height="600">
<g fill="None" fill-opacity="0.0" stroke="#2E70BA" stroke-opacity="0.00" stroke-width="0.3"><path d="
M 0.00 600.00 
L 600.00 600.00
L 600.00 0.00
L 0.00 0.00
L 0.00 600.00
M 287.00 180.00 
C 317.19 175.72 342.29 186.77 362.75 197.39 C 383.22 208.01 400.81 234.65 409.26 251.75 C 417.72 268.86 422.63 308.80 415.21 331.23 C 407.80 353.66 396.89 377.48 374.70 393.70 C 352.50 409.92 340.67 416.48 310.77 419.79 C 280.87 423.10 256.37 412.95 236.25 401.74 C 216.13 390.52 199.15 364.70 190.41 347.25 C 181.68 329.79 178.70 290.45 185.76 267.75 C 192.81 245.05 203.15 224.15 224.75 207.74 C 246.35 191.32 258.47 184.04 287.00 180.00 Z"/>
</g>
<g fill="None" fill-opacity="0.0" stroke="#2E70BA" stroke-opacity="0.98" stroke-width="0.3"><path d="
M 287.00 180.00 
C 258.47 184.04 246.35 191.32 224.75 207.74 C 203.15 224.15 192.81 245.05 185.76 267.75 C 178.70 290.45 181.68 329.79 190.41 347.25 C 199.15 364.70 216.13 390.52 236.25 401.74 C 256.37 412.95 280.87 423.10 310.77 419.79 C 340.67 416.48 352.50 409.92 374.70 393.70 C 396.89 377.48 407.80 353.66 415.21 331.23 C 422.63 308.80 417.72 268.86 409.26 251.75 C 400.81 234.65 383.22 208.01 362.75 197.39 C 342.29 186.77 317.19 175.72 287.00 180.00
M 271.00 209.00 
C 265.96 217.34 262.22 222.82 258.07 232.07 C 253.92 241.33 250.39 245.11 248.20 255.25 C 246.01 265.39 242.09 269.15 241.24 280.25 C 240.40 291.35 218.74 287.90 206.00 288.00
C 208.21 266.78 213.28 256.15 226.30 240.30 C 239.31 224.44 254.47 212.35 271.00 209.00
M 395.00 288.00 
C 383.00 288.00 371.00 288.00 359.00 288.00
C 356.24 257.91 344.71 235.25 331.00 211.00
C 364.79 219.20 390.22 254.22 395.00 288.00
M 335.00 288.00 
C 311.67 288.00 288.33 288.00 265.00 288.00
C 269.13 257.41 282.69 234.68 299.00 211.00
C 318.61 232.62 329.97 257.42 335.00 288.00
M 241.00 312.00 
C 243.91 342.40 256.09 367.51 271.00 391.00
C 255.46 386.07 237.38 374.90 224.90 359.10 C 212.43 343.29 210.79 332.43 205.00 312.00
C 216.88 311.87 229.83 312.17 241.00 312.00
M 335.00 312.00 
C 331.13 342.68 317.03 365.30 301.00 389.00
C 281.75 367.28 269.93 342.75 265.00 312.00
C 288.33 312.00 311.67 312.00 335.00 312.00
M 394.00 312.00 
C 392.49 332.19 387.05 342.52 374.70 358.70 C 362.35 374.89 345.82 387.21 329.00 391.00
C 345.03 367.13 354.92 341.86 360.00 312.00
C 370.62 313.18 382.64 311.22 394.00 312.00 Z"/>
</g>
<g fill="None" fill-opacity="0.0" stroke="#2E70BA" stroke-opacity="0.02" stroke-width="0.3"><path d="
M 271.00 209.00 
C 254.47 212.35 239.31 224.44 226.30 240.30 C 213.28 256.15 208.21 266.78 206.00 288.00
C 218.74 287.90 240.40 291.35 241.24 280.25 C 242.09 269.15 246.01 265.39 248.20 255.25 C 250.39 245.11 253.92 241.33 258.07 232.07 C 262.22 222.82 265.96 217.34 271.00 209.00 Z"/>
</g>
<g fill="None" fill-opacity="0.0" stroke="#2E70BA" stroke-opacity="0.02" stroke-width="0.3"><path d="
M 395.00 288.00 
C 390.22 254.22 364.79 219.20 331.00 211.00
C 344.71 235.25 356.24 257.91 359.00 288.00
C 371.00 288.00 383.00 288.00 395.00 288.00 Z"/>
</g>
<g fill="None" fill-opacity="0.0" stroke="#2E70BA" stroke-opacity="0.02" stroke-width="0.3"><path d="
M 335.00 288.00 
C 329.97 257.42 318.61 232.62 299.00 211.00
C 282.69 234.68 269.13 257.41 265.00 288.00
C 288.33 288.00 311.67 288.00 335.00 288.00 Z"/>
</g>
<g fill="None" fill-opacity="0.0" stroke="#2E70BA" stroke-opacity="0.03" stroke-width="0.3"><path d="
M 241.00 312.00 
C 229.83 312.17 216.88 311.87 205.00 312.00
C 210.79 332.43 212.43 343.29 224.90 359.10 C 237.38 374.90 255.46 386.07 271.00 391.00
C 256.09 367.51 243.91 342.40 241.00 312.00 Z"/>
</g>
<g fill="None" fill-opacity="0.0" stroke="#2E70BA" stroke-opacity="0.02" stroke-width="0.3"><path d="
M 335.00 312.00 
C 311.67 312.00 288.33 312.00 265.00 312.00
C 269.93 342.75 281.75 367.28 301.00 389.00
C 317.03 365.30 331.13 342.68 335.00 312.00 Z"/>
</g>
<g fill="None" fill-opacity="0.0" stroke="#2E70BA" stroke-opacity="0.02" stroke-width="0.3"><path d="
M 394.00 312.00 
C 382.64 311.22 370.62 313.18 360.00 312.00
C 354.92 341.86 345.03 367.13 329.00 391.00
C 345.82 387.21 362.35 374.89 374.70 358.70 C 387.05 342.52 392.49 332.19 394.00 312.00 Z"/>
</g>
<g fill="#2E70BA" fill-opacity="0.00" stroke="None">
<path d="
M 0.00 600.00 
L 600.00 600.00
L 600.00 0.00
L 0.00 0.00
L 0.00 600.00
M 287.00 180.00 
C 317.19 175.72 342.29 186.77 362.75 197.39 C 383.22 208.01 400.81 234.65 409.26 251.75 C 417.72 268.86 422.63 308.80 415.21 331.23 C 407.80 353.66 396.89 377.48 374.70 393.70 C 352.50 409.92 340.67 416.48 310.77 419.79 C 280.87 423.10 256.37 412.95 236.25 401.74 C 216.13 390.52 199.15 364.70 190.41 347.25 C 181.68 329.79 178.70 290.45 185.76 267.75 C 192.81 245.05 203.15 224.15 224.75 207.74 C 246.35 191.32 258.47 184.04 287.00 180.00 Z"/>
</g>
<g fill="#2E70BA" fill-opacity="0.98" stroke="None">
<path d="
M 287.00 180.00 
C 258.47 184.04 246.35 191.32 224.75 207.74 C 203.15 224.15 192.81 245.05 185.76 267.75 C 178.70 290.45 181.68 329.79 190.41 347.25 C 199.15 364.70 216.13 390.52 236.25 401.74 C 256.37 412.95 280.87 423.10 310.77 419.79 C 340.67 416.48 352.50 409.92 374.70 393.70 C 396.89 377.48 407.80 353.66 415.21 331.23 C 422.63 308.80 417.72 268.86 409.26 251.75 C 400.81 234.65 383.22 208.01 362.75 197.39 C 342.29 186.77 317.19 175.72 287.00 180.00
M 271.00 209.00 
C 265.96 217.34 262.22 222.82 258.07 232.07 C 253.92 241.33 250.39 245.11 248.20 255.25 C 246.01 265.39 242.09 269.15 241.24 280.25 C 240.40 291.35 218.74 287.90 206.00 288.00
C 208.21 266.78 213.28 256.15 226.30 240.30 C 239.31 224.44 254.47 212.35 271.00 209.00
M 395.00 288.00 
C 383.00 288.00 371.00 288.00 359.00 288.00
C 356.24 257.91 344.71 235.25 331.00 211.00
C 364.79 219.20 390.22 254.22 395.00 288.00
M 335.00 288.00 
C 311.67 288.00 288.33 288.00 265.00 288.00
C 269.13 257.41 282.69 234.68 299.00 211.00
C 318.61 232.62 329.97 257.42 335.00 288.00
M 241.00 312.00 
C 243.91 342.40 256.09 367.51 271.00 391.00
C 255.46 386.07 237.38 374.90 224.90 359.10 C 212.43 343.29 210.79 332.43 205.00 312.00
C 216.88 311.87 229.83 312.17 241.00 312.00
M 335.00 312.00 
C 331.13 342.68 317.03 365.30 301.00 389.00
C 281.75 367.28 269.93 342.75 265.00 312.00
C 288.33 312.00 311.67 312.00 335.00 312.00
M 394.00 312.00 
C 392.49 332.19 387.05 342.52 374.70 358.70 C 362.35 374.89 345.82 387.21 329.00 391.00
C 345.03 367.13 354.92 341.86 360.00 312.00
C 370.62 313.18 382.64 311.22 394.00 312.00 Z"/>
</g>
<g fill="#2E70BA" fill-opacity="0.02" stroke="None">
<path d="
M 271.00 209.00 
C 254.47 212.35 239.31 224.44 226.30 240.30 C 213.28 256.15 208.21 266.78 206.00 288.00
C 218.74 287.90 240.40 291.35 241.24 280.25 C 242.09 269.15 246.01 265.39 248.20 255.25 C 250.39 245.11 253.92 241.33 258.07 232.07 C 262.22 222.82 265.96 217.34 271.00 209.00 Z"/>
</g>
<g fill="#2E70BA" fill-opacity="0.02" stroke="None">
<path d="
M 395.00 288.00 
C 390.22 254.22 364.79 219.20 331.00 211.00
C 344.71 235.25 356.24 257.91 359.00 288.00
C 371.00 288.00 383.00 288.00 395.00 288.00 Z"/>
</g>
<g fill="#2E70BA" fill-opacity="0.02" stroke="None">
<path d="
M 335.00 288.00 
C 329.97 257.42 318.61 232.62 299.00 211.00
C 282.69 234.68 269.13 257.41 265.00 288.00
C 288.33 288.00 311.67 288.00 335.00 288.00 Z"/>
</g>
<g fill="#2E70BA" fill-opacity="0.03" stroke="None">
<path d="
M 241.00 312.00 
C 229.83 312.17 216.88 311.87 205.00 312.00
C 210.79 332.43 212.43 343.29 224.90 359.10 C 237.38 374.90 255.46 386.07 271.00 391.00
C 256.09 367.51 243.91 342.40 241.00 312.00 Z"/>
</g>
<g fill="#2E70BA" fill-opacity="0.02" stroke="None">
<path d="
M 335.00 312.00 
C 311.67 312.00 288.33 312.00 265.00 312.00
C 269.93 342.75 281.75 367.28 301.00 389.00
C 317.03 365.30 331.13 342.68 335.00 312.00 Z"/>
</g>
<g fill="#2E70BA" fill-opacity="0.02" stroke="None">
<path d="
M 394.00 312.00 
C 382.64 311.22 370.62 313.18 360.00 312.00
C 354.92 341.86 345.03 367.13 329.00 391.00
C 345.82 387.21 362.35 374.89 374.70 358.70 C 387.05 342.52 392.49 332.19 394.00 312.00 Z"/>
</g>
</svg>