<svg xmlns="http://www.w3.org/2000/svg" xmlns:v="https://svgstorm.com"
viewBox = "0 0 600 600"
width="600"
height="600">
<g fill="None" fill-opacity="0.0" stroke="#000000" stroke-opacity="0.00" stroke-width="0.3"><path d="
M 0.00 600.00 
L 600.00 600.00
L 600.00 0.00
L 0.00 0.00
L 0.00 600.00
M 201.00 216.00 
C 216.65 212.24 237.64 217.43 255.00 216.00 C 272.36 214.57 294.79 216.17 312.00 216.00 C 329.21 215.83 353.14 215.04 369.00 216.00 C 384.86 216.96 404.58 210.00 406.93 226.08 C 409.29 242.17 386.63 242.01 371.00 241.00 C 355.37 239.99 330.87 241.28 314.00 241.00 C 297.13 240.72 274.82 240.71 258.00 241.00 C 241.18 241.29 217.36 240.54 202.31 239.69 C 187.25 238.85 192.00 218.16 201.00 216.00
M 201.00 288.00 
C 213.72 284.67 230.60 289.55 245.00 288.00 C 259.40 286.45 276.36 288.83 291.00 288.00 C 305.64 287.17 323.69 288.70 338.00 288.00 C 352.31 287.30 370.88 289.04 384.00 288.00 C 397.12 286.96 408.81 289.19 407.66 301.68 C 406.51 314.17 392.08 312.02 379.00 312.00 C 365.92 311.98 347.14 312.14 333.00 312.00 C 318.86 311.86 301.40 312.35 287.00 312.00 C 272.60 311.65 253.94 312.76 240.00 312.00 C 226.06 311.24 209.22 314.30 198.75 310.81 C 188.27 307.32 192.90 290.12 201.00 288.00
M 204.00 359.00 
C 223.40 357.88 245.82 361.39 266.00 360.00 C 286.18 358.61 309.19 361.14 329.00 360.00 C 348.81 358.86 373.34 361.65 392.00 360.00 C 410.66 358.35 413.37 383.11 395.77 383.79 C 378.17 384.46 352.15 383.43 333.00 384.00 C 313.85 384.57 289.47 382.86 270.00 384.00 C 250.53 385.14 225.78 381.51 207.00 384.00 C 188.22 386.49 189.31 359.85 204.00 359.00 Z"/>
</g>
<g fill="None" fill-opacity="0.0" stroke="#000000" stroke-opacity="0.97" stroke-width="0.3"><path d="
M 201.00 216.00 
C 192.00 218.16 187.25 238.85 202.31 239.69 C 217.36 240.54 241.18 241.29 258.00 241.00 C 274.82 240.71 297.13 240.72 314.00 241.00 C 330.87 241.28 355.37 239.99 371.00 241.00 C 386.63 242.01 409.29 242.17 406.93 226.08 C 404.58 210.00 384.86 216.96 369.00 216.00 C 353.14 215.04 329.21 215.83 312.00 216.00 C 294.79 216.17 272.36 214.57 255.00 216.00 C 237.64 217.43 216.65 212.24 201.00 216.00 Z"/>
</g>
<g fill="None" fill-opacity="0.0" stroke="#000000" stroke-opacity="1.00" stroke-width="0.3"><path d="
M 201.00 288.00 
C 192.90 290.12 188.27 307.32 198.75 310.81 C 209.22 314.30 226.06 311.24 240.00 312.00 C 253.94 312.76 272.60 311.65 287.00 312.00 C 301.40 312.35 318.86 311.86 333.00 312.00 C 347.14 312.14 365.92 311.98 379.00 312.00 C 392.08 312.02 406.51 314.17 407.66 301.68 C 408.81 289.19 397.12 286.96 384.00 288.00 C 370.88 289.04 352.31 287.30 338.00 288.00 C 323.69 288.70 305.64 287.17 291.00 288.00 C 276.36 288.83 259.40 286.45 245.00 288.00 C 230.60 289.55 213.72 284.67 201.00 288.00 Z"/>
</g>
<g fill="None" fill-opacity="0.0" stroke="#000000" stroke-opacity="1.00" stroke-width="0.3"><path d="
M 204.00 359.00 
C 189.31 359.85 188.22 386.49 207.00 384.00 C 225.78 381.51 250.53 385.14 270.00 384.00 C 289.47 382.86 313.85 384.57 333.00 384.00 C 352.15 383.43 378.17 384.46 395.77 383.79 C 413.37 383.11 410.66 358.35 392.00 360.00 C 373.34 361.65 348.81 358.86 329.00 360.00 C 309.19 361.14 286.18 358.61 266.00 360.00 C 245.82 361.39 223.40 357.88 204.00 359.00 Z"/>
</g>
<g fill="#000000" fill-opacity="0.00" stroke="None">
<path d="
M 0.00 600.00 
L 600.00 600.00
L 600.00 0.00
L 0.00 0.00
L 0.00 600.00
M 201.00 216.00 
C 216.65 212.24 237.64 217.43 255.00 216.00 C 272.36 214.57 294.79 216.17 312.00 216.00 C 329.21 215.83 353.14 215.04 369.00 216.00 C 384.86 216.96 404.58 210.00 406.93 226.08 C 409.29 242.17 386.63 242.01 371.00 241.00 C 355.37 239.99 330.87 241.28 314.00 241.00 C 297.13 240.72 274.82 240.71 258.00 241.00 C 241.18 241.29 217.36 240.54 202.31 239.69 C 187.25 238.85 192.00 218.16 201.00 216.00
M 201.00 288.00 
C 213.72 284.67 230.60 289.55 245.00 288.00 C 259.40 286.45 276.36 288.83 291.00 288.00 C 305.64 287.17 323.69 288.70 338.00 288.00 C 352.31 287.30 370.88 289.04 384.00 288.00 C 397.12 286.96 408.81 289.19 407.66 301.68 C 406.51 314.17 392.08 312.02 379.00 312.00 C 365.92 311.98 347.14 312.14 333.00 312.00 C 318.86 311.86 301.40 312.35 287.00 312.00 C 272.60 311.65 253.94 312.76 240.00 312.00 C 226.06 311.24 209.22 314.30 198.75 310.81 C 188.27 307.32 192.90 290.12 201.00 288.00
M 204.00 359.00 
C 223.40 357.88 245.82 361.39 266.00 360.00 C 286.18 358.61 309.19 361.14 329.00 360.00 C 348.81 358.86 373.34 361.65 392.00 360.00 C 410.66 358.35 413.37 383.11 395.77 383.79 C 378.17 384.46 352.15 383.43 333.00 384.00 C 313.85 384.57 289.47 382.86 270.00 384.00 C 250.53 385.14 225.78 381.51 207.00 384.00 C 188.22 386.49 189.31 359.85 204.00 359.00 Z"/>
</g>
<g fill="#000000" fill-opacity="0.97" stroke="None">
<path d="
M 201.00 216.00 
C 192.00 218.16 187.25 238.85 202.31 239.69 C 217.36 240.54 241.18 241.29 258.00 241.00 C 274.82 240.71 297.13 240.72 314.00 241.00 C 330.87 241.28 355.37 239.99 371.00 241.00 C 386.63 242.01 409.29 242.17 406.93 226.08 C 404.58 210.00 384.86 216.96 369.00 216.00 C 353.14 215.04 329.21 215.83 312.00 216.00 C 294.79 216.17 272.36 214.57 255.00 216.00 C 237.64 217.43 216.65 212.24 201.00 216.00 Z"/>
</g>
<g fill="#000000" fill-opacity="1.00" stroke="None">
<path d="
M 201.00 288.00 
C 192.90 290.12 188.27 307.32 198.75 310.81 C 209.22 314.30 226.06 311.24 240.00 312.00 C 253.94 312.76 272.60 311.65 287.00 312.00 C 301.40 312.35 318.86 311.86 333.00 312.00 C 347.14 312.14 365.92 311.98 379.00 312.00 C 392.08 312.02 406.51 314.17 407.66 301.68 C 408.81 289.19 397.12 286.96 384.00 288.00 C 370.88 289.04 352.31 287.30 338.00 288.00 C 323.69 288.70 305.64 287.17 291.00 288.00 C 276.36 288.83 259.40 286.45 245.00 288.00 C 230.60 289.55 213.72 284.67 201.00 288.00 Z"/>
</g>
<g fill="#000000" fill-opacity="1.00" stroke="None">
<path d="
M 204.00 359.00 
C 189.31 359.85 188.22 386.49 207.00 384.00 C 225.78 381.51 250.53 385.14 270.00 384.00 C 289.47 382.86 313.85 384.57 333.00 384.00 C 352.15 383.43 378.17 384.46 395.77 383.79 C 413.37 383.11 410.66 358.35 392.00 360.00 C 373.34 361.65 348.81 358.86 329.00 360.00 C 309.19 361.14 286.18 358.61 266.00 360.00 C 245.82 361.39 223.40 357.88 204.00 359.00 Z"/>
</g>
</svg>