<svg xmlns="http://www.w3.org/2000/svg" xmlns:v="https://svgstorm.com"
viewBox = "0 0 600 600"
width="600"
height="600">
<g fill="None" fill-opacity="0.0" stroke="#2E70BA" stroke-opacity="0.00" stroke-width="0.3"><path d="
M 0.00 600.00 
L 600.00 600.00
L 600.00 0.00
L 0.00 0.00
L 0.00 600.00
M 351.00 334.00 
C 362.23 346.95 381.05 362.78 392.25 374.75 C 403.45 386.73 429.54 405.77 414.70 417.70 C 399.86 429.63 385.45 400.30 372.25 390.75 C 359.04 381.21 348.11 358.77 333.00 352.00
C 317.01 364.39 301.65 372.85 275.99 371.99 C 250.34 371.13 235.50 365.28 217.10 350.90 C 198.70 336.52 189.52 319.07 184.20 300.75 C 178.88 282.44 182.16 250.70 189.19 235.75 C 196.22 220.80 214.21 200.08 229.92 191.87 C 245.62 183.66 271.17 176.81 293.23 181.21 C 315.29 185.62 333.32 195.57 348.92 214.08 C 364.51 232.60 370.12 248.30 371.02 274.02 C 371.93 299.75 364.26 319.38 351.00 334.00 Z"/>
</g>
<g fill="None" fill-opacity="0.0" stroke="#2E70BA" stroke-opacity="0.98" stroke-width="0.3"><path d="
M 351.00 334.00 
C 364.26 319.38 371.93 299.75 371.02 274.02 C 370.12 248.30 364.51 232.60 348.92 214.08 C 333.32 195.57 315.29 185.62 293.23 181.21 C 271.17 176.81 245.62 183.66 229.92 191.87 C 214.21 200.08 196.22 220.80 189.19 235.75 C 182.16 250.70 178.88 282.44 184.20 300.75 C 189.52 319.07 198.70 336.52 217.10 350.90 C 235.50 365.28 250.34 371.13 275.99 371.99 C 301.65 372.85 317.01 364.39 333.00 352.00
C 348.11 358.77 359.04 381.21 372.25 390.75 C 385.45 400.30 399.86 429.63 414.70 417.70 C 429.54 405.77 403.45 386.73 392.25 374.75 C 381.05 362.78 362.23 346.95 351.00 334.00
M 269.00 204.00 
C 290.36 201.29 302.84 208.27 317.30 217.71 C 331.77 227.15 341.56 242.77 345.31 257.70 C 349.06 272.63 346.81 295.07 339.87 307.92 C 332.93 320.77 318.28 336.09 305.70 341.71 C 293.11 347.34 267.75 349.02 254.25 344.60 C 240.76 340.18 224.89 327.45 216.43 315.23 C 207.97 303.01 203.20 284.28 205.79 265.77 C 208.37 247.26 213.43 237.84 226.75 224.75 C 240.07 211.66 249.91 206.42 269.00 204.00 Z"/>
</g>
<g fill="None" fill-opacity="0.0" stroke="#2E70BA" stroke-opacity="0.01" stroke-width="0.3"><path d="
M 269.00 204.00 
C 249.91 206.42 240.07 211.66 226.75 224.75 C 213.43 237.84 208.37 247.26 205.79 265.77 C 203.20 284.28 207.97 303.01 216.43 315.23 C 224.89 327.45 240.76 340.18 254.25 344.60 C 267.75 349.02 293.11 347.34 305.70 341.71 C 318.28 336.09 332.93 320.77 339.87 307.92 C 346.81 295.07 349.06 272.63 345.31 257.70 C 341.56 242.77 331.77 227.15 317.30 217.71 C 302.84 208.27 290.36 201.29 269.00 204.00 Z"/>
</g>
<g fill="#2E70BA" fill-opacity="0.00" stroke="None">
<path d="
M 0.00 600.00 
L 600.00 600.00
L 600.00 0.00
L 0.00 0.00
L 0.00 600.00
M 351.00 334.00 
C 362.23 346.95 381.05 362.78 392.25 374.75 C 403.45 386.73 429.54 405.77 414.70 417.70 C 399.86 429.63 385.45 400.30 372.25 390.75 C 359.04 381.21 348.11 358.77 333.00 352.00
C 317.01 364.39 301.65 372.85 275.99 371.99 C 250.34 371.13 235.50 365.28 217.10 350.90 C 198.70 336.52 189.52 319.07 184.20 300.75 C 178.88 282.44 182.16 250.70 189.19 235.75 C 196.22 220.80 214.21 200.08 229.92 191.87 C 245.62 183.66 271.17 176.81 293.23 181.21 C 315.29 185.62 333.32 195.57 348.92 214.08 C 364.51 232.60 370.12 248.30 371.02 274.02 C 371.93 299.75 364.26 319.38 351.00 334.00 Z"/>
</g>
<g fill="#2E70BA" fill-opacity="0.98" stroke="None">
<path d="
M 351.00 334.00 
C 364.26 319.38 371.93 299.75 371.02 274.02 C 370.12 248.30 364.51 232.60 348.92 214.08 C 333.32 195.57 315.29 185.62 293.23 181.21 C 271.17 176.81 245.62 183.66 229.92 191.87 C 214.21 200.08 196.22 220.80 189.19 235.75 C 182.16 250.70 178.88 282.44 184.20 300.75 C 189.52 319.07 198.70 336.52 217.10 350.90 C 235.50 365.28 250.34 371.13 275.99 371.99 C 301.65 372.85 317.01 364.39 333.00 352.00
C 348.11 358.77 359.04 381.21 372.25 390.75 C 385.45 400.30 399.86 429.63 414.70 417.70 C 429.54 405.77 403.45 386.73 392.25 374.75 C 381.05 362.78 362.23 346.95 351.00 334.00
M 269.00 204.00 
C 290.36 201.29 302.84 208.27 317.30 217.71 C 331.77 227.15 341.56 242.77 345.31 257.70 C 349.06 272.63 346.81 295.07 339.87 307.92 C 332.93 320.77 318.28 336.09 305.70 341.71 C 293.11 347.34 267.75 349.02 254.25 344.60 C 240.76 340.18 224.89 327.45 216.43 315.23 C 207.97 303.01 203.20 284.28 205.79 265.77 C 208.37 247.26 213.43 237.84 226.75 224.75 C 240.07 211.66 249.91 206.42 269.00 204.00 Z"/>
</g>
<g fill="#2E70BA" fill-opacity="0.01" stroke="None">
<path d="
M 269.00 204.00 
C 249.91 206.42 240.07 211.66 226.75 224.75 C 213.43 237.84 208.37 247.26 205.79 265.77 C 203.20 284.28 207.97 303.01 216.43 315.23 C 224.89 327.45 240.76 340.18 254.25 344.60 C 267.75 349.02 293.11 347.34 305.70 341.71 C 318.28 336.09 332.93 320.77 339.87 307.92 C 346.81 295.07 349.06 272.63 345.31 257.70 C 341.56 242.77 331.77 227.15 317.30 217.71 C 302.84 208.27 290.36 201.29 269.00 204.00 Z"/>
</g>
</svg>