<svg xmlns="http://www.w3.org/2000/svg" xmlns:v="https://svgstorm.com"
viewBox = "0 0 600 600"
width="600"
height="600">
<g fill="None" fill-opacity="0.0" stroke="#ee5252" stroke-opacity="0.00" stroke-width="0.3"><path d="
M 0.00 600.00 
L 600.00 600.00
L 600.00 0.00
L 0.00 0.00
L 0.00 600.00
M 290.00 180.00 
C 305.60 178.66 324.85 182.38 336.25 187.19 C 347.66 192.00 361.48 204.58 368.39 216.75 C 375.30 228.93 379.99 237.95 382.19 253.25 C 384.40 268.55 382.91 290.91 379.60 304.75 C 376.30 318.60 371.06 331.31 365.29 342.30 C 359.51 353.30 353.15 366.85 344.61 377.75 C 336.06 388.65 322.60 404.83 309.08 416.08 C 295.57 427.33 280.78 407.06 270.25 395.75 C 259.73 384.43 250.83 370.42 243.42 359.23 C 236.02 348.04 231.22 336.19 226.60 323.25 C 221.98 310.32 217.60 296.72 216.07 279.93 C 214.55 263.13 219.87 241.02 224.26 230.25 C 228.65 219.48 237.25 203.73 250.92 194.92 C 264.58 186.10 272.66 181.49 290.00 180.00 Z"/>
</g>
<g fill="None" fill-opacity="0.0" stroke="#ee5252" stroke-opacity="0.98" stroke-width="0.3"><path d="
M 290.00 180.00 
C 272.66 181.49 264.58 186.10 250.92 194.92 C 237.25 203.73 228.65 219.48 224.26 230.25 C 219.87 241.02 214.55 263.13 216.07 279.93 C 217.60 296.72 221.98 310.32 226.60 323.25 C 231.22 336.19 236.02 348.04 243.42 359.23 C 250.83 370.42 259.73 384.43 270.25 395.75 C 280.78 407.06 295.57 427.33 309.08 416.08 C 322.60 404.83 336.06 388.65 344.61 377.75 C 353.15 366.85 359.51 353.30 365.29 342.30 C 371.06 331.31 376.30 318.60 379.60 304.75 C 382.91 290.91 384.40 268.55 382.19 253.25 C 379.99 237.95 375.30 228.93 368.39 216.75 C 361.48 204.58 347.66 192.00 336.25 187.19 C 324.85 182.38 305.60 178.66 290.00 180.00
M 301.00 391.00 
C 273.15 365.11 259.20 342.54 248.74 315.25 C 238.28 287.96 235.84 244.87 256.26 222.25 C 276.69 199.63 321.00 198.32 342.08 220.92 C 363.16 243.52 362.79 286.94 351.61 314.75 C 340.42 342.57 326.55 363.75 301.00 391.00 Z"/>
</g>
<g fill="None" fill-opacity="0.0" stroke="#ee5252" stroke-opacity="0.02" stroke-width="0.3"><path d="
M 301.00 391.00 
C 326.55 363.75 340.42 342.57 351.61 314.75 C 362.79 286.94 363.16 243.52 342.08 220.92 C 321.00 198.32 276.69 199.63 256.26 222.25 C 235.84 244.87 238.28 287.96 248.74 315.25 C 259.20 342.54 273.15 365.11 301.00 391.00
M 293.00 228.00 
C 322.80 225.31 341.81 250.84 333.81 277.25 C 325.80 303.65 288.48 306.26 271.30 286.70 C 254.12 267.14 268.98 230.16 293.00 228.00 Z"/>
</g>
<g fill="None" fill-opacity="0.0" stroke="#ee5252" stroke-opacity="0.98" stroke-width="0.3"><path d="
M 293.00 228.00 
C 268.98 230.16 254.12 267.14 271.30 286.70 C 288.48 306.26 325.80 303.65 333.81 277.25 C 341.81 250.84 322.80 225.31 293.00 228.00
M 297.00 252.00 
C 310.43 249.53 318.83 270.69 303.77 275.77 C 288.70 280.84 281.82 254.79 297.00 252.00 Z"/>
</g>
<g fill="None" fill-opacity="0.0" stroke="#ee5252" stroke-opacity="0.05" stroke-width="0.3"><path d="
M 297.00 252.00 
C 281.82 254.79 288.70 280.84 303.77 275.77 C 318.83 270.69 310.43 249.53 297.00 252.00 Z"/>
</g>
<g fill="#ee5252" fill-opacity="0.00" stroke="None">
<path d="
M 0.00 600.00 
L 600.00 600.00
L 600.00 0.00
L 0.00 0.00
L 0.00 600.00
M 290.00 180.00 
C 305.60 178.66 324.85 182.38 336.25 187.19 C 347.66 192.00 361.48 204.58 368.39 216.75 C 375.30 228.93 379.99 237.95 382.19 253.25 C 384.40 268.55 382.91 290.91 379.60 304.75 C 376.30 318.60 371.06 331.31 365.29 342.30 C 359.51 353.30 353.15 366.85 344.61 377.75 C 336.06 388.65 322.60 404.83 309.08 416.08 C 295.57 427.33 280.78 407.06 270.25 395.75 C 259.73 384.43 250.83 370.42 243.42 359.23 C 236.02 348.04 231.22 336.19 226.60 323.25 C 221.98 310.32 217.60 296.72 216.07 279.93 C 214.55 263.13 219.87 241.02 224.26 230.25 C 228.65 219.48 237.25 203.73 250.92 194.92 C 264.58 186.10 272.66 181.49 290.00 180.00 Z"/>
</g>
<g fill="#ee5252" fill-opacity="0.98" stroke="None">
<path d="
M 290.00 180.00 
C 272.66 181.49 264.58 186.10 250.92 194.92 C 237.25 203.73 228.65 219.48 224.26 230.25 C 219.87 241.02 214.55 263.13 216.07 279.93 C 217.60 296.72 221.98 310.32 226.60 323.25 C 231.22 336.19 236.02 348.04 243.42 359.23 C 250.83 370.42 259.73 384.43 270.25 395.75 C 280.78 407.06 295.57 427.33 309.08 416.08 C 322.60 404.83 336.06 388.65 344.61 377.75 C 353.15 366.85 359.51 353.30 365.29 342.30 C 371.06 331.31 376.30 318.60 379.60 304.75 C 382.91 290.91 384.40 268.55 382.19 253.25 C 379.99 237.95 375.30 228.93 368.39 216.75 C 361.48 204.58 347.66 192.00 336.25 187.19 C 324.85 182.38 305.60 178.66 290.00 180.00
M 301.00 391.00 
C 273.15 365.11 259.20 342.54 248.74 315.25 C 238.28 287.96 235.84 244.87 256.26 222.25 C 276.69 199.63 321.00 198.32 342.08 220.92 C 363.16 243.52 362.79 286.94 351.61 314.75 C 340.42 342.57 326.55 363.75 301.00 391.00 Z"/>
</g>
<g fill="#ee5252" fill-opacity="0.02" stroke="None">
<path d="
M 301.00 391.00 
C 326.55 363.75 340.42 342.57 351.61 314.75 C 362.79 286.94 363.16 243.52 342.08 220.92 C 321.00 198.32 276.69 199.63 256.26 222.25 C 235.84 244.87 238.28 287.96 248.74 315.25 C 259.20 342.54 273.15 365.11 301.00 391.00
M 293.00 228.00 
C 322.80 225.31 341.81 250.84 333.81 277.25 C 325.80 303.65 288.48 306.26 271.30 286.70 C 254.12 267.14 268.98 230.16 293.00 228.00 Z"/>
</g>
<g fill="#ee5252" fill-opacity="0.98" stroke="None">
<path d="
M 293.00 228.00 
C 268.98 230.16 254.12 267.14 271.30 286.70 C 288.48 306.26 325.80 303.65 333.81 277.25 C 341.81 250.84 322.80 225.31 293.00 228.00
M 297.00 252.00 
C 310.43 249.53 318.83 270.69 303.77 275.77 C 288.70 280.84 281.82 254.79 297.00 252.00 Z"/>
</g>
<g fill="#ee5252" fill-opacity="0.05" stroke="None">
<path d="
M 297.00 252.00 
C 281.82 254.79 288.70 280.84 303.77 275.77 C 318.83 270.69 310.43 249.53 297.00 252.00 Z"/>
</g>
</svg>